# xmcd
#
# Track frame offsets: 
#        150
#        13697
#        25732
#        39897
#        50735
#        64587
#        76277
#        90812
#        101390
#        113562
#
# Disc length: 1652 seconds
#
# Revision: 0
# Processed by: cddbd v1.5.2PL0 Copyright (c) Steve Scherf et al.
# Submitted via: ExactAudioCopy v0.99pb4
#
DISCID=6406720a
DTITLE=Paul Yandell - Forever Chet
DYEAR=2000
DGENRE=Instrumental
TTITLE0=Forever Chet
TTITLE1=Down Home
TTITLE2=Indian Love Call
TTITLE3=Baby's Coming Home
TTITLE4=Caravan
TTITLE5=Yes Ma'am
TTITLE6=Ready For The Times To Get Better
TTITLE7=I'll Say She Does
TTITLE8=Petite Waltz
TTITLE9=Drive-In
EXTD=
EXTT0=
EXTT1=
EXTT2=
EXTT3=
EXTT4=
EXTT5=
EXTT6=
EXTT7=
EXTT8=
EXTT9=
PLAYORDER=
